<svg xmlns="http://www.w3.org/2000/svg" viewBox="0 0 200 200" width="200" height="200">
<circle cx="100" cy="100" r="100" fill="#FF6B00"/>
<ellipse cx="100" cy="85" rx="45" ry="42" fill="#5C2D14"/>
<path d="M60 75 Q65 55 85 48 Q100 44 115 48 Q135 55 140 75" fill="none" stroke="#1A0A02" stroke-width="6" stroke-linecap="round"/>
<ellipse cx="78" cy="55" rx="18" ry="12" fill="#1A0A02"/>
<ellipse cx="122" cy="55" rx="18" ry="12" fill="#1A0A02"/>
<ellipse cx="83" cy="87" rx="12" ry="13" fill="#1A0A02"/>
<ellipse cx="117" cy="87" rx="12" ry="13" fill="#1A0A02"/>
<circle cx="83" cy="87" r="7" fill="#0A0402"/>
<circle cx="117" cy="87" r="7" fill="#0A0402"/>
<circle cx="85" cy="85" r="2.5" fill="white" opacity="0.9"/>
<circle cx="119" cy="85" r="2.5" fill="white" opacity="0.9"/>
<path d="M75 77 Q83 73 91 77" fill="none" stroke="#2C1408" stroke-width="2" stroke-linecap="round"/>
<path d="M109 77 Q117 73 125 77" fill="none" stroke="#2C1408" stroke-width="2" stroke-linecap="round"/>
<ellipse cx="100" cy="105" rx="6" ry="4" fill="#4A1F0A"/>
<path d="M85 121 Q100 136 115 121 Q106 144 100 145 Q94 144 85 121Z" fill="#C0392B"/>
<path d="M82 119 Q91 128 100 130 Q109 128 118 119" fill="none" stroke="#1A0A02" stroke-width="2" stroke-linecap="round"/>
<ellipse cx="78" cy="108" rx="9" ry="6" fill="#7A3318" opacity="0.45"/>
<ellipse cx="122" cy="108" rx="9" ry="6" fill="#7A3318" opacity="0.45"/>
<ellipse cx="100" cy="52" rx="14" ry="5" fill="#FF8C00"/>
<path d="M86 48 L88 36 L91 48Z M94 46 L96 32 L99 46Z M101 45 L103 30 L106 45Z M109 46 L111 32 L114 46Z M117 48 L119 36 L122 48Z" fill="#FF6B00"/>
<circle cx="97" cy="32" r="4" fill="#FFD700"/>
<circle cx="107" cy="28" r="3.5" fill="#FFD700"/>
<circle cx="88" cy="35" r="3" fill="#FFD700"/>
<circle cx="116" cy="34" r="3" fill="#FFD700"/>
<path d="M68 138 Q100 133 132 138 Q136 155 132 175 Q116 192 100 194 Q84 192 68 175 Q64 155 68 138Z" fill="white"/>
<path d="M80 140 Q100 137 120 140 L122 148 Q100 145 78 148Z" fill="#E8E0D8"/>
<path d="M76 155 Q100 152 124 155 L124 162 Q100 159 76 162Z" fill="#E8E0D8"/>
</svg>